<svg width="11" height="9" viewBox="0 0 11 9" fill="none" xmlns="http://www.w3.org/2000/svg">
<path d="M3.95834 6.67517L1.74575 4.46258C1.63574 4.35632 1.48838 4.29753 1.33544 4.29886C1.18249 4.30019 1.03618 4.36153 0.928026 4.46969C0.819871 4.57784 0.758523 4.72415 0.757194 4.8771C0.755865 5.03005 0.814661 5.1774 0.92092 5.28742L3.54592 7.91242C3.65531 8.02177 3.80366 8.08321 3.95834 8.08321C4.11302 8.08321 4.26136 8.02177 4.37075 7.91242L10.7874 1.49575C10.8937 1.38573 10.9525 1.23838 10.9511 1.08543C10.9498 0.932484 10.8885 0.786177 10.7803 0.678022C10.6722 0.569868 10.5259 0.508519 10.3729 0.50719C10.22 0.505861 10.0726 0.564658 9.96259 0.670917L3.95834 6.67517Z" fill="#011627"/>
</svg>
