<svg width="20" height="20" viewBox="0 0 20 20" fill="none" xmlns="http://www.w3.org/2000/svg">
<path d="M10 -0.00100708C15.524 -0.00100708 20.002 4.47699 20.002 10.001C20.002 15.524 15.524 20.002 10 20.002C4.476 20.002 -0.0019989 15.524 -0.0019989 10.001C-0.0019989 4.47699 4.476 -0.00100708 10 -0.00100708ZM10 1.49899C8.87581 1.4868 7.76036 1.69769 6.71822 2.11946C5.67608 2.54124 4.72793 3.16551 3.92866 3.95616C3.12939 4.74681 2.49487 5.68813 2.06182 6.72563C1.62877 7.76314 1.4058 8.87624 1.4058 10.0005C1.4058 11.1248 1.62877 12.2378 2.06182 13.2754C2.49487 14.3129 3.12939 15.2542 3.92866 16.0448C4.72793 16.8355 5.67608 17.4597 6.71822 17.8815C7.76036 18.3033 8.87581 18.5142 10 18.502C12.232 18.4678 14.361 17.5571 15.9274 15.9665C17.4937 14.376 18.3716 12.2333 18.3716 10.001C18.3716 7.76871 17.4937 5.62597 15.9274 4.03545C14.361 2.44493 12.232 1.53423 10 1.49999V1.49899ZM6.462 12.784C6.88275 13.32 7.41996 13.7532 8.03293 14.0509C8.64591 14.3485 9.31858 14.5028 10 14.502C10.6806 14.5028 11.3524 14.3489 11.9648 14.0519C12.5772 13.755 13.1141 13.3228 13.535 12.788C13.6583 12.6319 13.8386 12.5312 14.0362 12.5081C14.2337 12.4849 14.4324 12.5412 14.5885 12.6645C14.7446 12.7878 14.8453 12.9681 14.8684 13.1657C14.8916 13.3632 14.8353 13.5619 14.712 13.718C14.1507 14.4306 13.435 15.0064 12.6187 15.4021C11.8025 15.7977 10.9071 16.0028 10 16.002C9.09176 16.0027 8.19523 15.797 7.37821 15.4002C6.5612 15.0035 5.84508 14.4262 5.284 13.712C5.1662 13.5553 5.11439 13.3588 5.13968 13.1644C5.16497 12.9701 5.26533 12.7933 5.41929 12.6721C5.57326 12.5508 5.76858 12.4946 5.96346 12.5155C6.15834 12.5364 6.33729 12.6328 6.462 12.784ZM7 6.74999C7.16706 6.74527 7.33337 6.77409 7.4891 6.83476C7.64483 6.89542 7.78681 6.9867 7.90665 7.1032C8.02648 7.21969 8.12174 7.35904 8.18679 7.51298C8.25184 7.66693 8.28535 7.83237 8.28535 7.99949C8.28535 8.16662 8.25184 8.33205 8.18679 8.486C8.12174 8.63995 8.02648 8.77929 7.90665 8.89579C7.78681 9.01228 7.64483 9.10356 7.4891 9.16423C7.33337 9.2249 7.16706 9.25372 7 9.24899C6.67473 9.23979 6.36587 9.10411 6.13906 8.87079C5.91224 8.63747 5.78535 8.32489 5.78535 7.99949C5.78535 7.67409 5.91224 7.36152 6.13906 7.1282C6.36587 6.89488 6.67473 6.7592 7 6.74999ZM13 6.74999C13.1671 6.74527 13.3334 6.77409 13.4891 6.83476C13.6448 6.89542 13.7868 6.9867 13.9066 7.1032C14.0265 7.21969 14.1217 7.35904 14.1868 7.51298C14.2518 7.66693 14.2854 7.83237 14.2854 7.99949C14.2854 8.16662 14.2518 8.33205 14.1868 8.486C14.1217 8.63995 14.0265 8.77929 13.9066 8.89579C13.7868 9.01228 13.6448 9.10356 13.4891 9.16423C13.3334 9.2249 13.1671 9.25372 13 9.24899C12.6747 9.23979 12.3659 9.10411 12.1391 8.87079C11.9122 8.63747 11.7854 8.32489 11.7854 7.99949C11.7854 7.67409 11.9122 7.36152 12.1391 7.1282C12.3659 6.89488 12.6747 6.7592 13 6.74999Z" fill="#707991"/>
</svg>
